Coordinates
version=1
nRows=32
nColumns=12
inDegrees=yes

Units are S.I. units (second, meters, Newtons, ...)
Angles are in degrees

endheader
time	SC_y	SC_z	SC_x	AC_y	AC_z	AC_x	GH_y	GH_z	GH_yy	EL_x	PS_y
       0.0              -44.16          32.54          73.03          43.66          3.221          2.068         -79.27          74.19          143.0          118.8          13.88
  0.002821              -44.16          32.54          73.03          43.67          3.218           2.07         -79.24          74.19          142.9          118.8          13.88
  0.005643              -44.15          32.54          73.02          43.67          3.216          2.073          -79.2          74.19          142.9          118.8          13.88
  0.008464              -44.15          32.54          73.02          43.67          3.214          2.076         -79.17          74.18          142.8          118.8          13.88
   0.01129              -44.14          32.53          73.01          43.68          3.211          2.079         -79.13          74.18          142.8          118.8          13.88
   0.01411              -44.13          32.53          73.01          43.68          3.209          2.082         -79.09          74.18          142.7          118.8          13.88
   0.01693              -44.13          32.53           73.0          43.68          3.206          2.086         -79.05          74.17          142.6          118.8          13.88
   0.01975              -44.12          32.52           73.0          43.69          3.203           2.09         -79.01          74.17          142.6          118.8          13.88
   0.02257              -44.11          32.52          72.99          43.69            3.2          2.094         -78.96          74.16          142.5          118.8          13.88
   0.02539              -44.11          32.52          72.99           43.7          3.196          2.098         -78.91          74.16          142.4          118.8          13.88
   0.02821               -44.1          32.51          72.98           43.7          3.193          2.103         -78.85          74.15          142.3          118.8          13.88
   0.03104              -44.09          32.51          72.97          43.71          3.189          2.108         -78.79          74.15          142.3          118.8          13.88
   0.03386              -44.08           32.5          72.97          43.71          3.184          2.113         -78.73          74.14          142.2          118.8          13.88
   0.03668              -44.07           32.5          72.96          43.72           3.18          2.119         -78.66          74.14          142.1          118.8          13.88
    0.0395              -44.06          32.49          72.95          43.73          3.175          2.125         -78.59          74.13          141.9          118.8          13.88
   0.04232              -44.05          32.49          72.94          43.73          3.169          2.132          -78.5          74.12          141.8          118.8          13.88
   0.04514              -44.04          32.48          72.93          43.74          3.163           2.14         -78.42          74.11          141.7          118.8          13.87
   0.04796              -44.02          32.48          72.92          43.75          3.157          2.148         -78.32          74.11          141.6          118.8          13.87
   0.05078              -44.01          32.47          72.91          43.76           3.15          2.157         -78.22           74.1          141.4          118.8          13.87
   0.05361              -43.99          32.46          72.89          43.77          3.142          2.167          -78.1          74.09          141.2          118.8          13.87
   0.05643              -43.97          32.45          72.88          43.78          3.133          2.177         -77.97          74.07          141.0          118.7          13.87
   0.05925              -43.95          32.44          72.86           43.8          3.124          2.189         -77.84          74.06          140.8          118.7          13.87
   0.06207              -43.93          32.43          72.84          43.81          3.114          2.202         -77.68          74.05          140.6          118.7          13.87
   0.06489               -43.9          32.42          72.82          43.83          3.102          2.216         -77.51          74.03          140.4          118.7          13.86
   0.06771              -43.87           32.4           72.8          43.84          3.089          2.233         -77.32          74.01          140.1          118.7          13.86
   0.07053              -43.84          32.39          72.78          43.86          3.075           2.25         -77.11          73.99          139.8          118.7          13.86
   0.07336              -43.81          32.37          72.75          43.88          3.059           2.27         -76.88          73.97          139.4          118.7          13.86
   0.07618              -43.77          32.35          72.72          43.91          3.041          2.293         -76.61          73.95          139.0          118.7          13.85
     0.079              -43.73          32.33          72.68          43.94          3.021          2.318         -76.31          73.92          138.6          118.6          13.85
   0.08182              -43.68          32.31          72.64          43.97          2.998          2.347         -75.97          73.89          138.1          118.6          13.84
   0.08464              -43.62          32.28           72.6           44.0          2.972           2.38         -75.58          73.85          137.5          118.6          13.84
   0.08746              -43.55          32.25          72.55          44.05          2.942          2.418         -75.14          73.81          136.8          118.6          13.83
